<?xml version="1.0" encoding="UTF-8"?>
<svg width="232px" height="45px" viewBox="0 0 232 45" version="1.1" xmlns="http://www.w3.org/2000/svg" xmlns:xlink="http://www.w3.org/1999/xlink">
    <!-- Generator: Sketch 57.1 (83088) - https://sketch.com -->
    <title>Chuck Engel - WISDEMS-LOGO</title>
    <desc>Created with Sketch.</desc>
    <g id="mockups" stroke="none" stroke-width="1" fill="none" fill-rule="evenodd">
        <g id="inner-fancy" transform="translate(-14.000000, -48.000000)" fill="#131C30">
            <g id="Chuck-Engel---WISDEMS-LOGO" transform="translate(14.000000, 48.000000)">
                <path d="M114.000063,5.62836965 C111.682934,5.62836965 109.436502,6.08153748 107.323021,6.97552317 C105.280489,7.8393901 103.445638,9.07678022 101.869254,10.6530381 C100.292996,12.2292959 99.0557323,14.0642727 98.1917394,16.1068045 C97.2978797,18.2202855 96.8445859,20.4667175 96.8445859,22.7838468 C96.8445859,25.100724 97.2978797,27.3472821 98.1917394,29.4606371 C99.0557323,31.5031688 100.292996,33.3381457 101.869254,34.9144035 C103.445638,36.4907873 105.280489,37.7281775 107.323021,38.5920444 C109.436502,39.4859041 111.682934,39.9390719 114.000063,39.9390719 C116.317066,39.9390719 118.563498,39.4859041 120.676979,38.5920444 C122.719511,37.7281775 124.554866,36.4907873 126.130116,34.9144035 C127.706626,33.3381457 128.944142,31.5031688 129.808639,29.4606371 C130.70212,27.3472821 131.155792,25.100724 131.155792,22.7838468 C131.155792,20.4667175 130.70212,18.2202855 129.808639,16.1068045 C128.944142,14.0642727 127.706626,12.2292959 126.130116,10.6530381 C124.554866,9.07678022 122.719511,7.8393901 120.676979,6.97552317 C118.563498,6.08153748 116.317066,5.62836965 114.000063,5.62836965 Z M114.000063,44.7837838 C111.031158,44.7837838 108.149712,44.2016975 105.435872,43.0537816 C102.815916,41.9455619 100.463375,40.3597266 98.4436533,38.3400044 C96.4240572,36.3204083 94.8380958,33.9678675 93.7298762,31.3479122 C92.5820863,28.633946 92,25.7526253 92,22.7838468 C92,19.8148162 92.5820863,16.9334955 93.7298762,14.2196554 C94.8380958,11.5995741 96.4240572,9.24703321 98.4436533,7.2274371 C100.463375,5.20771498 102.815916,3.6217536 105.435872,2.51365997 C108.149712,1.36587004 111.031158,0.783783784 114.000063,0.783783784 C116.968968,0.783783784 119.850288,1.36587004 122.564128,2.51365997 C125.183706,3.6217536 127.536499,5.20771498 129.556599,7.2274371 C131.575439,9.24703321 133.16203,11.5995741 134.269746,14.2196554 C135.417788,16.9334955 136,19.8148162 136,22.7838468 C136,25.7526253 135.417788,28.633946 134.269746,31.3479122 C133.16203,33.9678675 131.575439,36.3204083 129.556599,38.3401305 C127.536499,40.3597266 125.183706,41.9455619 122.564128,43.0537816 C119.850288,44.2016975 116.968968,44.7837838 114.000063,44.7837838 L114.000063,44.7837838 Z" id="Fill-1"></path>
                <path d="M114.389246,28.1152761 C117.528995,28.1152761 119.613173,26.3781368 119.613173,23.3109479 L119.613173,23.2567437 C119.613173,20.2165949 117.528995,18.4524155 114.389246,18.4524155 L112.250892,18.4524155 L112.250892,28.1152761 L114.389246,28.1152761 Z M107,13.7837838 L114.308105,13.7837838 C121.074819,13.7837838 125,17.6923162 125,23.1753754 L125,23.2295796 C125,28.7123907 121.020643,32.7837838 114.199753,32.7837838 L107,32.7837838 L107,13.7837838 L107,13.7837838 Z" id="Fill-3"></path>
                <polyline id="Fill-4" points="0 14.8317969 4.71485218 14.8317969 7.52077685 24.5701998 10.6255771 14.7837838 14.4665175 14.7837838 17.5713178 24.5701998 20.3772425 14.8317969 25 14.8317969 19.6182639 31.7837838 15.7313996 31.7837838 12.4885808 22.0935231 9.26872386 31.7837838 5.38185957 31.7837838 0 14.8317969"></polyline>
                <polygon id="Fill-5" points="46 30.7837838 51 30.7837838 51 14.7837838 46 14.7837838"></polygon>
                <path d="M72,29.0598918 L74.4745673,26.0309925 C76.0556092,27.3223582 77.8199069,28.0032052 79.6758324,28.0032052 C80.8673636,28.0032052 81.5090047,27.5806062 81.5090047,26.8761905 L81.5090047,26.8293051 C81.5090047,26.1483321 80.9818677,25.7726185 78.8051832,25.2561226 C75.391092,24.45781 72.7561451,23.4714515 72.7561451,20.0902813 L72.7561451,20.0433959 C72.7561451,16.9909278 75.1162084,14.7837838 78.9655627,14.7837838 C81.6922604,14.7837838 83.8231925,15.5350849 85.5646139,16.9673591 L83.3419309,20.1843042 C81.8756391,19.1276177 80.271598,18.5641103 78.8510586,18.5641103 C77.7740315,18.5641103 77.2471405,19.0337208 77.2471405,19.6207969 L77.2471405,19.6676823 C77.2471405,20.4191095 77.7970307,20.7478116 80.0195906,21.2644335 C83.7085654,22.0861888 86,23.3072265 86,26.3831373 L86,26.4301488 C86,29.7878762 83.4106826,31.7837838 79.5154529,31.7837838 C76.6742511,31.7837838 73.9705526,30.8678795 72,29.0598918" id="Fill-6"></path>
                <polyline id="Fill-7" points="146 14.7837838 158.885749 14.7837838 158.885749 18.5552737 150.394349 18.5552737 150.394349 20.9781554 158.084767 20.9781554 158.084767 24.4751878 150.394349 24.4751878 150.394349 27.0124166 159 27.0124166 159 30.7837838 146 30.7837838 146 14.7837838"></polyline>
                <polyline id="Fill-8" points="180 14.7837838 184.685088 14.7837838 188.500613 20.9781554 192.316139 14.7837838 197 14.7837838 197 30.7837838 192.590866 30.7837838 192.590866 21.595286 188.500613 27.8582413 188.408629 27.8582413 184.341678 21.6410493 184.341678 30.7837838 180 30.7837838 180 14.7837838"></polyline>
                <path d="M218,29.0598918 L220.474567,26.0309925 C222.054994,27.3223582 223.819907,28.0032052 225.675832,28.0032052 C226.86761,28.0032052 227.50839,27.5806062 227.50839,26.8761905 L227.50839,26.8293051 C227.50839,26.1483321 226.981991,25.7726185 224.80506,25.2561226 C221.390846,24.45781 218.756391,23.4714515 218.756391,20.0902813 L218.756391,20.0433959 C218.756391,16.9909278 221.116577,14.7837838 224.964948,14.7837838 C227.691645,14.7837838 229.823069,15.5350849 231.564614,16.9673591 L229.342177,20.1843042 C227.874901,19.1276177 226.271106,18.5641103 224.850567,18.5641103 C223.7744,18.5641103 223.246772,19.0337208 223.246772,19.6207969 L223.246772,19.6676823 C223.246772,20.4191095 223.796539,20.7478116 226.018976,21.2644335 C229.708688,22.0861888 232,23.3072265 232,26.3831373 L232,26.4301488 C232,29.7878762 229.411052,31.7837838 225.515945,31.7837838 C222.673636,31.7837838 219.970307,30.8678795 218,29.0598918" id="Fill-9"></path>
            </g>
        </g>
    </g>
</svg>